G04*
G04 #@! TF.GenerationSoftware,Altium Limited,Altium Designer,24.3.1 (35)*
G04*
G04 Layer_Color=255*
%FSLAX25Y25*%
%MOIN*%
G70*
G04*
G04 #@! TF.SameCoordinates,DD40E729-4839-4357-B32C-C6A01C06D7B0*
G04*
G04*
G04 #@! TF.FilePolarity,Positive*
G04*
G01*
G75*
%ADD18C,0.00236*%
%ADD74C,0.06693*%
%ADD85O,0.04331X0.08661*%
%ADD86O,0.04331X0.07087*%
%ADD87C,0.09449*%
%ADD88R,0.09449X0.09449*%
%ADD89C,0.10000*%
D18*
X-481367Y85453D02*
X-482679D01*
X-482941Y85190D01*
Y84666D01*
X-482679Y84403D01*
X-481367D01*
X-482941Y82829D02*
Y83878D01*
X-481891Y82829D01*
X-481629D01*
X-481367Y83091D01*
Y83616D01*
X-481629Y83878D01*
D74*
X-220551Y85354D02*
D03*
Y125354D02*
D03*
D85*
X-509921Y82953D02*
D03*
D86*
X-501457Y71929D02*
D03*
Y93976D02*
D03*
D87*
X-194724Y105354D02*
D03*
Y205354D02*
D03*
Y185354D02*
D03*
Y165354D02*
D03*
Y145354D02*
D03*
Y125354D02*
D03*
Y85354D02*
D03*
Y65354D02*
D03*
D88*
Y45354D02*
D03*
D89*
X-492205Y186063D02*
D03*
X-502205Y196063D02*
D03*
X-482205D02*
D03*
Y176063D02*
D03*
X-502205D02*
D03*
M02*
