G04*
G04 #@! TF.GenerationSoftware,Altium Limited,Altium Designer,24.3.1 (35)*
G04*
G04 Layer_Color=8388736*
%FSLAX25Y25*%
%MOIN*%
G70*
G04*
G04 #@! TF.SameCoordinates,DD40E729-4839-4357-B32C-C6A01C06D7B0*
G04*
G04*
G04 #@! TF.FilePolarity,Negative*
G04*
G01*
G75*
%ADD18C,0.00236*%
%ADD19R,0.03150X0.02953*%
%ADD20R,0.03150X0.03543*%
%ADD21R,0.03150X0.03150*%
%ADD25R,0.07874X0.20866*%
%ADD27R,0.02631X0.02648*%
%ADD35R,0.02593X0.03197*%
%ADD36R,0.03937X0.02756*%
%ADD37R,0.03563X0.03568*%
%ADD38R,0.02559X0.02756*%
%ADD39R,0.05339X0.07316*%
%ADD40R,0.01968X0.03150*%
%ADD41R,0.03150X0.01968*%
%ADD42C,0.05512*%
%ADD43R,0.06299X0.06299*%
%ADD44R,0.06313X0.07505*%
%ADD45R,0.03963X0.03773*%
%ADD46R,0.04355X0.03773*%
%ADD47R,0.21654X0.03937*%
%ADD48R,0.11811X0.06299*%
%ADD49R,0.03150X0.01575*%
%ADD50R,0.04757X0.05756*%
%ADD54R,0.02648X0.02631*%
%ADD55R,0.04166X0.03591*%
%ADD56R,0.06706X0.02572*%
G04:AMPARAMS|DCode=57|XSize=31.62mil|YSize=47.37mil|CornerRadius=6.01mil|HoleSize=0mil|Usage=FLASHONLY|Rotation=0.000|XOffset=0mil|YOffset=0mil|HoleType=Round|Shape=RoundedRectangle|*
%AMROUNDEDRECTD57*
21,1,0.03162,0.03535,0,0,0.0*
21,1,0.01961,0.04737,0,0,0.0*
1,1,0.01202,0.00980,-0.01768*
1,1,0.01202,-0.00980,-0.01768*
1,1,0.01202,-0.00980,0.01768*
1,1,0.01202,0.00980,0.01768*
%
%ADD57ROUNDEDRECTD57*%
%ADD58R,0.03261X0.03064*%
%ADD59R,0.06000X0.03000*%
%ADD60R,0.08280X0.04343*%
%ADD61R,0.10446X0.07099*%
%ADD62R,0.06312X0.04737*%
%ADD63R,0.11784X0.03713*%
%ADD64R,0.05328X0.11430*%
%ADD65R,0.05721X0.07887*%
%ADD66R,0.02953X0.02756*%
%ADD67R,0.05800X0.09068*%
%ADD68R,0.05721X0.02769*%
%ADD69R,0.22847X0.07099*%
%ADD70O,0.05131X0.09461*%
%ADD71O,0.05131X0.07887*%
%ADD72C,0.10249*%
%ADD73R,0.10249X0.10249*%
%ADD74C,0.06693*%
%ADD75C,0.10800*%
G36*
X-453937Y116969D02*
X-458268D01*
X-460236Y118937D01*
Y123268D01*
X-453937D01*
Y116969D01*
D02*
G37*
D18*
X-481367Y85453D02*
X-482679D01*
X-482941Y85190D01*
Y84666D01*
X-482679Y84403D01*
X-481367D01*
X-482941Y82829D02*
Y83878D01*
X-481891Y82829D01*
X-481629D01*
X-481367Y83091D01*
Y83616D01*
X-481629Y83878D01*
D19*
X-340197Y83701D02*
D03*
X-334291D02*
D03*
X-396732Y117854D02*
D03*
X-390827D02*
D03*
X-379213Y72835D02*
D03*
X-385118D02*
D03*
X-469173Y43976D02*
D03*
X-475079D02*
D03*
X-480197Y157331D02*
D03*
X-486102D02*
D03*
X-480197Y110709D02*
D03*
X-486102D02*
D03*
X-459134Y100472D02*
D03*
X-453228D02*
D03*
X-441221D02*
D03*
X-447126D02*
D03*
D20*
X-334291Y127008D02*
D03*
X-340197D02*
D03*
X-390827Y92854D02*
D03*
X-396732D02*
D03*
X-317165Y185630D02*
D03*
X-311260D02*
D03*
X-441221Y92598D02*
D03*
X-447126D02*
D03*
D21*
X-502658Y216575D02*
D03*
X-509154D02*
D03*
X-502658Y60866D02*
D03*
X-509154D02*
D03*
X-502658Y55118D02*
D03*
X-509154D02*
D03*
D25*
X-248268Y175906D02*
D03*
X-222284D02*
D03*
D27*
X-429322Y176260D02*
D03*
X-433276D02*
D03*
X-429322Y160512D02*
D03*
X-433276D02*
D03*
X-409221Y124488D02*
D03*
X-405267D02*
D03*
Y110315D02*
D03*
X-409221D02*
D03*
X-405267Y103228D02*
D03*
X-409221D02*
D03*
Y96142D02*
D03*
X-405267D02*
D03*
X-409221Y117402D02*
D03*
X-405267D02*
D03*
X-409221Y89055D02*
D03*
X-405267D02*
D03*
D35*
X-259436Y81732D02*
D03*
X-254107D02*
D03*
D36*
X-508543Y47756D02*
D03*
X-484921D02*
D03*
X-508543Y33189D02*
D03*
X-484921D02*
D03*
D37*
X-325628Y185630D02*
D03*
X-330357D02*
D03*
D38*
X-458839Y92598D02*
D03*
X-453524D02*
D03*
X-441516Y84724D02*
D03*
X-446831D02*
D03*
D39*
X-324267Y97480D02*
D03*
X-336284D02*
D03*
Y113228D02*
D03*
X-324267D02*
D03*
D40*
X-464567Y107717D02*
D03*
X-461417D02*
D03*
X-458268D02*
D03*
X-455118D02*
D03*
X-451968D02*
D03*
X-448819D02*
D03*
X-445669D02*
D03*
X-442520D02*
D03*
X-439370D02*
D03*
X-436221D02*
D03*
X-433071D02*
D03*
X-429921D02*
D03*
Y152205D02*
D03*
X-433071D02*
D03*
X-436221D02*
D03*
X-439370D02*
D03*
X-442520D02*
D03*
X-445669D02*
D03*
X-448819D02*
D03*
X-451968D02*
D03*
X-455118D02*
D03*
X-458268D02*
D03*
X-461417D02*
D03*
X-464567D02*
D03*
D41*
X-426772Y112638D02*
D03*
Y115787D02*
D03*
Y118937D02*
D03*
Y122087D02*
D03*
Y125236D02*
D03*
Y128386D02*
D03*
Y131535D02*
D03*
Y134685D02*
D03*
Y137835D02*
D03*
Y140984D02*
D03*
Y144134D02*
D03*
Y147283D02*
D03*
X-467717D02*
D03*
Y144134D02*
D03*
Y140984D02*
D03*
Y137835D02*
D03*
Y134685D02*
D03*
Y131535D02*
D03*
Y128386D02*
D03*
Y125236D02*
D03*
Y122087D02*
D03*
Y118937D02*
D03*
Y115787D02*
D03*
Y112638D02*
D03*
D42*
X-457087Y120118D02*
D03*
D43*
Y129961D02*
D03*
Y139803D02*
D03*
X-447244Y120118D02*
D03*
Y129961D02*
D03*
Y139803D02*
D03*
X-437402Y120118D02*
D03*
Y129961D02*
D03*
Y139803D02*
D03*
D44*
X-275159Y111260D02*
D03*
X-263345D02*
D03*
D45*
X-330850Y207205D02*
D03*
X-325134D02*
D03*
D46*
X-448637Y76850D02*
D03*
X-453961D02*
D03*
D47*
X-426024Y68228D02*
D03*
Y60354D02*
D03*
Y52480D02*
D03*
Y44606D02*
D03*
D48*
X-417165Y35157D02*
D03*
Y77677D02*
D03*
D49*
X-316260Y107913D02*
D03*
Y102795D02*
D03*
X-307205D02*
D03*
Y107913D02*
D03*
D50*
X-480071Y216614D02*
D03*
X-487961D02*
D03*
X-468181Y55630D02*
D03*
X-476071D02*
D03*
X-468181Y66614D02*
D03*
X-476071D02*
D03*
D54*
X-433276Y170363D02*
D03*
Y166409D02*
D03*
D55*
X-309358Y93543D02*
D03*
X-304028D02*
D03*
Y117165D02*
D03*
X-309358D02*
D03*
D56*
X-502441Y88071D02*
D03*
Y85512D02*
D03*
Y82953D02*
D03*
Y80394D02*
D03*
Y77835D02*
D03*
D57*
X-486181Y77539D02*
D03*
Y88366D02*
D03*
X-478701Y77539D02*
D03*
X-482441D02*
D03*
Y88366D02*
D03*
X-478701D02*
D03*
D58*
X-506860Y157628D02*
D03*
X-494557Y157626D02*
D03*
Y151035D02*
D03*
X-506860Y151033D02*
D03*
X-494557Y105758D02*
D03*
X-506860Y105760D02*
D03*
Y112350D02*
D03*
X-494557Y112352D02*
D03*
D59*
X-327435Y192796D02*
D03*
Y200196D02*
D03*
X-318235D02*
D03*
Y196496D02*
D03*
Y192796D02*
D03*
D60*
X-348425Y122854D02*
D03*
Y117854D02*
D03*
Y112854D02*
D03*
Y107854D02*
D03*
Y102854D02*
D03*
Y97854D02*
D03*
Y92854D02*
D03*
Y87854D02*
D03*
X-382677D02*
D03*
Y92854D02*
D03*
Y97854D02*
D03*
Y102854D02*
D03*
Y107854D02*
D03*
Y112854D02*
D03*
Y117854D02*
D03*
Y122854D02*
D03*
D61*
X-295630Y81732D02*
D03*
X-269646D02*
D03*
X-295630Y128976D02*
D03*
X-269646D02*
D03*
D62*
X-288032Y105354D02*
D03*
X-296693Y101614D02*
D03*
Y109095D02*
D03*
D63*
X-488878Y142677D02*
D03*
Y137677D02*
D03*
Y132677D02*
D03*
Y127677D02*
D03*
Y122677D02*
D03*
X-504902D02*
D03*
Y127677D02*
D03*
Y132677D02*
D03*
Y137677D02*
D03*
Y142677D02*
D03*
D64*
X-270413Y175906D02*
D03*
X-259587D02*
D03*
D65*
X-263248Y99449D02*
D03*
X-275256D02*
D03*
D66*
X-481476Y104803D02*
D03*
X-484823D02*
D03*
D67*
X-298209Y175906D02*
D03*
X-282579D02*
D03*
D68*
X-401850Y72835D02*
D03*
Y69095D02*
D03*
Y65354D02*
D03*
X-392008D02*
D03*
Y72835D02*
D03*
D69*
X-243268Y92362D02*
D03*
Y105354D02*
D03*
Y118347D02*
D03*
D70*
X-509921Y82953D02*
D03*
D71*
X-501457Y71929D02*
D03*
Y93976D02*
D03*
D72*
X-194724Y105354D02*
D03*
Y205354D02*
D03*
Y185354D02*
D03*
Y165354D02*
D03*
Y145354D02*
D03*
Y125354D02*
D03*
Y85354D02*
D03*
Y65354D02*
D03*
D73*
Y45354D02*
D03*
D74*
X-220551Y85354D02*
D03*
Y125354D02*
D03*
D75*
X-492205Y186063D02*
D03*
X-502205Y196063D02*
D03*
X-482205D02*
D03*
Y176063D02*
D03*
X-502205D02*
D03*
M02*
