M48
;Layer_Color=9474304
;FILE_FORMAT=2:4
INCH,TZ
;TYPE=PLATED
T01F00S00C0.0118
T03F00S00C0.0402
T04F00S00C0.0630
%
T01
X-50886Y3740
X-50295
X-49705
X-49114
X-48524
X-47933
X-47343
X-46752
X-46161
X-44390
X-43799
X-43209
X-43504Y3150
X-42913
X-44095
X-44685
Y4331
X-44067Y4504
X-44095Y5512
X-43980Y6146
X-44390Y6102
X-45396Y7191
X-45866Y7874
X-46457
X-46823Y8311
X-46598Y8878
X-46280Y9260
X-46618Y9646
X-46323Y10039
X-47638Y10236
X-47343Y10827
X-47933Y9646
X-48524
X-48819Y10236
X-49283Y9933
X-49409Y9055
X-49374Y7839
X-49114Y7283
X-49705
X-49409Y6693
X-48819
X-48335Y7220
X-47331Y7362
X-47343Y6102
X-47933
X-46752
X-47933Y4921
X-48228Y4331
X-48819
X-49409
X-50000
X-50591
X-51181
Y6693
X-46161Y8465
X-44980Y9646
X-43673Y9260
X-43681Y10047
X-43209Y9646
X-42618
X-42913Y10236
X-42618Y10827
X-39677Y10669
X-39132Y9758
X-39075Y8465
X-39370Y7874
X-38780
X-38189
X-37598
X-37008
X-37303Y8465
X-37008Y9055
X-37303Y9646
X-37598Y10236
X-37008
X-37303Y10827
Y7283
X-37598Y6693
X-37008
X-36417
X-36122Y6102
X-36713
X-37303
X-37894
X-37598Y5512
X-37008
X-36417
X-36122Y4921
X-36713
X-37303
X-37598Y4331
X-37008
X-36417
X-36122Y3740
X-36713
X-37303
X-37894
X-38189Y3150
X-38780
X-39370
X-39961
X-40551
X-40256Y3740
X-39665
X-39075
X-39961Y4331
X-40551
Y5512
X-41142
X-40846Y6102
X-40256
X-39370Y5512
X-39665Y4921
X-38665Y6547
X-41059Y6846
X-40551Y7874
X-40118Y8465
X-41437Y8465
X-43772Y8472
X-42618Y7283
X-37598Y3150
X-37008
X-36417
X-35827
X-35236
X-34646
X-34055
X-33465
X-32874
X-32283
X-31693
X-31102
X-30512
X-29921
X-29331
X-28740
X-28150
X-27559
X-26969
X-26378
X-25787
X-25197
X-24606
X-24016
X-23425
X-22835
X-22244
X-21654
X-21063
X-20472
X-20768Y3740
X-21358
X-21949
X-22539
X-22244Y4331
X-21654
X-21063
X-20472
X-20768Y4921
X-21358
X-21949
X-22244Y5512
X-21654
X-21063
X-20472
X-20768Y6102
X-21358
X-21949
X-22539
X-23130
X-23721
X-24311
X-24902
X-25492
X-26083
X-26673
X-27264
X-27854
X-28445
X-29035
X-29626
X-30217
X-30807
X-31398
X-31988
X-32579
X-33169
X-33760
X-34350
X-34941
X-35532
X-35827Y5512
X-35236
X-34646
X-34055
X-33465
X-32874
X-32283
X-31693
X-31102
X-30512
X-29921
X-29331
X-28740
X-28150
X-27559
X-27854Y4921
X-28445
X-29035
X-29626
X-30217
X-30807
X-31398
X-31988
X-32579
X-33169
X-33760
X-34350
X-34941
X-35532
X-35827Y4331
X-35236
X-34646
X-34055
X-33465
X-32874
X-32283
X-31693
X-31102
X-30512
X-29921
X-29331
X-28740
X-28150
X-27854Y3740
X-28445
X-29035
X-29626
X-30217
X-30807
X-31398
X-31988
X-32579
X-33169
X-33760
X-34350
X-34941
X-35532
X-35827Y6693
X-35236
X-34646
X-34055
X-33465
X-32874
X-32283
X-31693
X-31102
X-30512
X-29921
X-29331
X-28740
X-28150
X-27559
X-26969
X-26378
X-25787
X-25197
X-24606
X-24016
X-23425
X-22835
X-22244
X-21654
X-21063
X-20472
Y7874
X-21063
X-21654
X-22244
X-22835
X-23425
X-24016
X-24606
X-24949Y8173
X-24311Y8465
X-23721
X-23130
X-21654Y9055
X-21063
X-20472
X-22835Y5512
X-23425
X-24016
X-24606
X-25197
X-25787
X-25492Y4921
X-24902
X-24311
X-24606Y4331
X-25197
X-25787
X-25492Y3740
X-26083
X-24902
X-24311
X-23721
X-27264
X-28150Y7874
X-28740
X-28445Y8465
X-27854
X-28150Y9055
X-27559
X-26969
X-28740
X-29331
X-29921
X-29626Y9646
X-29035
X-28445
X-28150Y10236
X-31646Y9717
X-31693Y9055
X-31398Y8465
X-30807
X-31102Y7874
X-30512
X-31693
X-32283
X-32874
X-33465
X-34646
X-35236
X-35827
X-35532Y8465
X-35827Y9055
X-35532Y9646
X-35827Y10236
X-35532Y10827
X-32874Y9055
X-32528Y8634
X-31988Y8465
X-19882Y7874
X-19291
X-18701
X-18110
X-17815Y8465
X-18406
X-18701Y9055
X-18110
Y6693
X-18701
X-18406Y6102
X-17815
X-18110Y5512
X-18701
X-19291
X-19882
X-20177Y4921
Y3740
X-19587
X-18996
X-18406
X-17815
X-18110Y3150
X-18701
X-19291
X-19882
X-18701Y4331
X-18110
X-17815Y4921
X-18406
X-20177Y6102
Y12008
X-18996
X-18406
X-17815
X-18110Y12598
X-18701
X-18406Y13189
X-17815
Y14370
X-18406
X-18701Y14961
X-18110
X-17815Y15551
X-18406
X-18996
X-19587
X-20177
Y14370
Y13189
X-18996
X-18701Y16142
X-18110
X-17815Y16732
X-18406
X-18701Y17323
X-19291
X-18110
X-17815Y17913
X-18406
X-18110Y18504
X-17815Y19094
X-18406
X-18701Y19685
X-19291
X-19882
X-20177Y19094
Y17913
Y21457
X-19587
X-18996
X-18406
X-17815
X-18110Y20866
X-18701
X-18406Y20276
X-17815
X-18110Y19685
X-20472
X-21063
X-21654
X-22244
X-21949Y19094
X-22539
X-23130
X-23721
X-24311
X-24902
X-25492
X-26083
X-26673
X-27264
X-27854
X-28445
X-29035
X-29626
X-29921Y19685
X-29331
X-28740
X-28150
X-27559
X-27854Y20276
X-28445
X-29035
X-29626
X-30217
X-30512Y20866
X-31102
X-31693
X-31398Y21457
X-31988
X-32579
X-33169
X-33760
X-34350
X-34941
X-35532
X-35827Y20866
X-35236
X-34646
X-34350Y20276
X-34941
X-34646Y19685
X-34055
X-33465
X-32874
X-33760Y19094
Y17913
X-34350
X-34941
X-35532
X-35827Y17323
X-35236
X-34646
X-34055
X-33465
X-32874
X-32283
X-31693
X-31102
X-30512
X-30807Y17913
X-31688Y18046
X-32563Y18059
X-33169Y17913
X-33465Y16142
X-34055
X-34646
X-35236
X-35827
X-35532Y15551
X-34941
X-34350
X-33760
X-33169
X-32579
X-31988
X-31398
X-30807
X-30217
X-29626
X-29035
X-28445
X-27854
X-27264
X-26673
X-26083
X-25492
X-24902
X-24311
X-23721
X-23130
X-22539
X-21949
X-21358
X-20768
X-21063Y16142
X-20472
Y14961
X-21063
X-21654
X-22244
X-22835
X-23425
X-24016
X-24606
X-25197
X-25787
X-26378
X-26969
X-27559
X-28150
X-28740
X-29331
X-29921
X-30512
X-31102
X-31693
X-32283
X-32874
X-33465
X-34055
X-34646
X-35236
X-35827
X-35532Y14370
X-34941
X-34350
X-33760
X-33169
X-32579
X-31988
X-31398
X-30807
X-30217
X-29626
X-29035
X-28445
X-27854
X-27264
X-26673
X-26083
X-25492
X-24902
X-24311
X-23721
X-23130
X-22539
X-21949
X-21358
X-20768
Y13189
X-21358
X-21949
X-22539
X-23130
X-23721
X-24311
X-24902
X-25492
X-26083
Y12008
X-26673
X-27264
X-27854
X-28445
X-29035
X-29626
X-29921Y11417
X-29331
X-28740
Y12598
X-28150
X-27854Y13189
X-28445
X-30807
X-31398
X-31988
X-32579
X-32539Y12677
X-32874Y12598
X-33169Y13189
X-34350
X-34941
X-35532
X-35827Y12598
Y11417
X-31693
X-31988Y12008
X-31693Y12598
X-31102
Y16142
X-31693
X-32283
X-32874
X-30512
X-29921
X-29331
X-28740
X-28150
X-27559
X-26969
X-26378
X-25787
X-25197
X-24902Y16350
X-24606Y16142
X-24016
X-23425
X-22835
X-22244
X-21654
X-21358Y19094
X-20768
X-20472Y18504
X-20768Y20276
X-21358
X-21949
X-22244Y20866
X-21654
X-21063
X-20472
X-20768Y21457
X-21358
X-21949
X-22539
X-23130
X-23721
X-24311
X-24902
X-25492
X-26083
X-25787Y20866
X-25197
X-24606
X-24016
X-24311Y20276
X-24902
X-25492
X-25787Y19685
X-25197
X-24606
X-24016
X-25787Y18504
X-26378
X-26969
X-26673Y16732
X-26083
X-25492
X-24949Y12508
X-24606Y12598
X-24016
X-23425
X-22835
X-21949Y12008
X-21358
X-20768
X-27264Y21457
X-27854
X-28445
X-29035
X-29626
X-30217
X-30807
X-29921Y20866
X-29331
X-28740
X-28150
X-31295Y19650
X-30807Y19094
X-34646Y18504
X-35236
X-35827Y19685
X-33618Y20720
X-36122Y21457
X-37008Y20866
X-37598
X-37303Y20276
X-36713
X-37008Y19685
X-37598
X-37303Y19094
X-37894
X-38484
X-39075
X-39665
X-40256
X-40846
X-41437
X-42028
X-42618
X-43209
X-43799
X-44390
X-44980
X-45571
X-46161
X-46752
X-47343
X-47047Y19685
X-46457
X-46752Y20276
X-47343
X-47638Y20866
X-47047
X-46457
X-48228
X-48819
X-49409
X-50000
X-50591
X-51181
X-50886Y20276
X-51181Y19685
X-50886Y19094
X-51181Y18504
X-50591
X-51181Y17323
X-50886Y16732
X-50295
X-49705
X-49114
X-48524
X-47933
X-47343
X-46752
X-46161
X-45571
X-44980
X-44390
X-43799
X-44095Y16142
X-44685
X-45276
X-45866
Y17323
X-45276
X-44685
X-44095
X-43799Y17913
X-44390
X-44980
X-45571
X-46161
X-46752
X-47343
X-47047Y17323
X-46457
X-46752Y15551
X-47343
X-47638Y14961
X-48228
X-47343Y14370
X-46295Y14181
Y13591
Y13000
Y12409
Y11819
X-45866Y11417
X-45276
X-44685Y11417
X-44094
X-43504
X-43130Y11807
Y12398
Y12988
Y13579
Y14169
X-43504Y14618
X-44094
X-44685
X-45276
X-45866
X-45197Y13469
X-44240
Y12512
X-45197
X-47957Y12890
X-47713Y11752
X-49071Y11720
X-49811Y11728
X-50587Y11720
X-51205Y14661
X-51185Y15299
X-51181Y16142
X-50591
X-50000
X-49409
X-48819
X-49409Y17323
X-49114Y20276
X-49705
X-44390
X-43799
X-43209
X-42618
X-42028
X-41437
X-40846
X-40256
X-39665
X-39961Y19685
X-40551
X-41142
X-41732
X-42323
X-42913
X-43504
X-44095
X-44685
Y20866
X-44095
X-43504
X-42913
X-42323
X-41732
X-41142
X-40551
X-39961
X-39370Y19685
Y18504
X-38780
X-38189
X-37598
X-37008
X-36417
X-36122Y19094
X-36713
X-36417Y19685
Y17323
X-37035Y16772
X-37598Y17323
X-38189
X-38780
X-39370
X-39961
X-40551
X-41142
X-41732
X-42323
X-42028Y16732
X-42618
X-42323Y16142
X-41732
X-41142
X-40551
X-39961
X-39370
X-38780
X-38484Y16732
X-39075
X-39665
X-40256
X-40846
X-41437
Y17913
X-40846
X-40256
X-39665
X-39075
X-38484
X-37894
X-37303
X-37598Y16142
X-38169Y15602
X-37598Y14961
X-37008
X-36417
X-36122Y14370
X-36713
X-37303
X-37894
X-38189Y13779
X-38780
X-38484Y13189
X-37894
X-37303
X-37598Y13779
X-37008
Y12598
X-37303Y12008
X-37598Y11417
X-37008
X-39137Y11327
X-40102Y12453
X-40256Y13189
X-39665
X-39961Y13779
X-39402Y14382
X-39961Y14961
X-40551
X-41142
X-41732
X-42323
X-42028Y14370
X-41437
X-40846
X-41142Y13779
X-41732
X-42122Y13480
X-41209Y13217
X-41437Y15551
X-40846
X-40256
X-39665
X-38780Y14961
X-36713Y15551
X-36122
X-36417Y16142
X-39961Y18504
X-40551
X-41142
X-41732
X-42323
X-42913
X-42028Y17913
Y15551
T03
X-22055Y8535
Y12535
T04
X-19472Y4535
Y6535
Y8535
Y10535
Y12535
Y14535
Y16535
Y18535
Y20535
X-48220Y19606
X-49220Y18606
X-50220Y19606
Y17606
X-48220
M30
